PathFileType	4	(X/Y/Z)	regression/subject18/trials/walk2/markers.trc
DataRate	CameraRate	NumFrames	NumMarkers	Units	OrigDataRate	OrigDataStartFrame	OrigNumFrames
200.00000000000426	200.00000000000426	4	64	m	200.00000000000426	161	215
Frame#	Time	CLAV			C7			RACR			RASH			RPSH			RLEL			RMEL			RUA1			RUA2			RUA3			RFAsuperior			RFAradius			RFAulna			RASI			RPSI			RCAL			RTOE			RMT5			RTH1			RTH2			RTH3			RTB1			RTB2			RTB3			RLFC			RMFC			RLMAL			RMMAL			RHJC			RKJC			REJC			RAJC			RSJC			LACR			LASH			LPSH			LLEL			LMEL			LUA1			LUA2			LUA3			LFAsuperior			LFAradius			LFAulna			LASI			LPSI			LCAL			LTOE			LMT5			LTH1			LTH2			LTH3			LTB1			LTB2			LTB3			LLFC			LMFC			LLMAL			LMMAL			LHJC			LKJC			LEJC			LAJC			LSJC			
		X1	Y1	Z1	X2	Y2	Z2	X3	Y3	Z3	X4	Y4	Z4	X5	Y5	Z5	X6	Y6	Z6	X7	Y7	Z7	X8	Y8	Z8	X9	Y9	Z9	X10	Y10	Z10	X11	Y11	Z11	X12	Y12	Z12	X13	Y13	Z13	X14	Y14	Z14	X15	Y15	Z15	X16	Y16	Z16	X17	Y17	Z17	X18	Y18	Z18	X19	Y19	Z19	X20	Y20	Z20	X21	Y21	Z21	X22	Y22	Z22	X23	Y23	Z23	X24	Y24	Z24	X25	Y25	Z25	X26	Y26	Z26	X27	Y27	Z27	X28	Y28	Z28	X29	Y29	Z29	X30	Y30	Z30	X31	Y31	Z31	X32	Y32	Z32	X33	Y33	Z33	X34	Y34	Z34	X35	Y35	Z35	X36	Y36	Z36	X37	Y37	Z37	X38	Y38	Z38	X39	Y39	Z39	X40	Y40	Z40	X41	Y41	Z41	X42	Y42	Z42	X43	Y43	Z43	X44	Y44	Z44	X45	Y45	Z45	X46	Y46	Z46	X47	Y47	Z47	X48	Y48	Z48	X49	Y49	Z49	X50	Y50	Z50	X51	Y51	Z51	X52	Y52	Z52	X53	Y53	Z53	X54	Y54	Z54	X55	Y55	Z55	X56	Y56	Z56	X57	Y57	Z57	X58	Y58	Z58	X59	Y59	Z59	X60	Y60	Z60	X61	Y61	Z61	X62	Y62	Z62	X63	Y63	Z63	X64	Y64	Z64	

162	3.245	1.811206743096297	1.450122045442212	-0.5142363223860508	1.700523908293656	1.52583519132137	-0.5208347241678377	1.771892114397524	1.501598584209627	-0.3930945494837162	1.81109958449782	1.44244414834134	-0.3522372581421476	1.714099202048224	1.462846997844092	-0.3574160564979589	1.680912880460799	1.18207565505727	-0.2699168506084979	1.673592078445431	1.164398035079398	-0.3500778037353834	1.747396522061422	1.40684535496411	-0.3279209924476441	1.696524843377758	1.260646764744408	-0.3032939555523901	1.745916172292118	1.320523006680794	-0.3113677252090593	1.715305640447085	1.098644670698107	-0.2966720435838654	1.768080776233987	0.9558098713795137	-0.2670059121694178	1.70891713317187	0.9361422945368538	-0.2799640085094102	1.79989696237918	1.026513819553293	-0.3881014305503018	1.644116872386682	1.06631464428567	-0.4698478371891563	1.417266136776593	0.2995180287589406	-0.4013542931896176	1.558672323256842	0.09713032975513174	-0.4702904034205697	1.503569087845359	0.1198274070873361	-0.3699238280139173	1.79251328598326	0.7945873681368687	-0.3692628233524173	1.88137843278221	0.7277015522637829	-0.4357847097039334	1.827468836596008	0.6374966467948984	-0.3662654991802608	1.711517252927945	0.406453029398789	-0.380455368156524	1.663773082194112	0.3283750166685073	-0.4345094059993628	1.594253129644845	0.3008346891946395	-0.3730144514677279	1.84649129897927	0.5267427463965652	-0.3720122880687014	1.842026093717456	0.5203985168936249	-0.4840681497395389	1.498221952190212	0.2524491971026623	-0.3696905178736153	1.495632340531404	0.2522470438655124	-0.4563512309153782	1.725967904608111	0.9393118526358468	-0.4468644465941571	1.849839339463426	0.5155752612148821	-0.4311112500735327	1.680437042845995	1.167609735498627	-0.3150563157975609	1.47914543673761	0.2548263405622486	-0.4178744139779473	1.765659755339307	1.452001863190904	-0.3546632662319275	1.784393550040088	1.498353094702884	-0.6400362499713295	1.827447615722711	1.438200046678676	-0.6751610203182572	1.722687202677147	1.460235124141648	-0.6807541225425333	1.727211469949203	1.180702344136226	-0.7911780198074461	1.710957985564482	1.156497479146992	-0.7140948277019039	1.77039750330885	1.403813161354931	-0.7095538638862492	1.733091166165446	1.257239129550739	-0.7506967469909706	1.776884499101272	1.319085586631965	-0.732068456310072	1.758346770988723	1.095027011580789	-0.7651512103941109	1.817205243663503	0.9555296691024346	-0.7989631290423774	1.756761591520402	0.9356596565112826	-0.8015727296308357	1.793616102733124	1.046139116792197	-0.6582220196664599	1.641916733172018	1.073189242427956	-0.5644691047055587	1.616549871706239	0.05809403696997605	-0.6063370968685763	1.863016051741736	0.04890622873922306	-0.5364895209955204	1.810608351231339	0.009623690027178958	-0.6331088172600143	1.771670101660663	0.7945653708111542	-0.675948451798273	1.850641472917749	0.7219476981632187	-0.6032429899309273	1.787148076637781	0.6345433441611861	-0.6680901771773058	1.760962646235934	0.3463299356887955	-0.6395486132246557	1.778320068040178	0.2584834654927082	-0.5822839775366156	1.744124481227117	0.1892417893445608	-0.6406738311018845	1.792361407624706	0.5229255877918297	-0.6548386205069894	1.785443620901162	0.5246075899648306	-0.5427403665672086	1.7049241722143	0.08906035641510468	-0.6395748805367173	1.704330321811361	0.09053898719739917	-0.5528898926086447	1.722190510036447	0.9511147738019139	-0.6093186494456515	1.791729851013227	0.5217440165338543	-0.5960749565539806	1.721972850195716	1.162794109630586	-0.7476015058620099	1.689806180337098	0.07997167300251118	-0.5907886708862395	1.782007786564197	1.447757761528241	-0.677587028408037	
163	3.25	1.816910080341147	1.450687041779127	-0.5141918203311788	1.706338143955097	1.526535975263717	-0.5210835151902664	1.77731295761741	1.502176653039944	-0.3931476506271918	1.816332349361026	1.442963180125461	-0.3521959358438662	1.719371856130117	1.463484895028251	-0.3576450078270023	1.684922293189197	1.182942465380329	-0.2703240428510533	1.677589785201375	1.165371823188712	-0.350507442978659	1.752430024131299	1.407474959540021	-0.3280634435810903	1.700902955497021	1.261476091588862	-0.3036147590459053	1.750560788049162	1.321144427259439	-0.3115924066532471	1.71857521095427	1.099212716271776	-0.2970504630965651	1.769894640627551	0.9558626635993787	-0.2673157570506267	1.710556248416593	0.9367816877044637	-0.2803516332665247	1.805303292436389	1.027853027998146	-0.3881353810261234	1.649480150167197	1.06707873635632	-0.4700774899992746	1.43177431238006	0.2957185559636601	-0.4023618974057429	1.57773414518397	0.09656863149239203	-0.4712365107815021	1.522019182057141	0.1179762238409012	-0.370924342004664	1.800198908704809	0.7964481773408169	-0.369231501779297	1.890052404662418	0.7309847062751192	-0.4358405947366245	1.837457333766479	0.6398830790532787	-0.3664839642069597	1.724850882457827	0.4072568352847961	-0.3810884078197774	1.678228987028023	0.328601517128383	-0.4352849087246535	1.609089096520987	0.2999797781692796	-0.3738553191745019	1.858105835555011	0.5294301580424068	-0.372408297515438	1.853760439819953	0.5232060385774018	-0.4844756045840077	1.513750413085999	0.2502366393405134	-0.3706386433765133	1.5111865697223	0.2501413637447201	-0.4573003060027793	1.731553102481156	0.940307580465684	-0.4466117418026617	1.861630308375448	0.5184065398681192	-0.4315246179225466	1.684420205680383	1.168520967359893	-0.315477435532528	1.494654805221301	0.2524237268740233	-0.4188239783346964	1.770911206307006	1.452576577471673	-0.3547485536143663	1.790513564590534	1.498986306917423	-0.6400536817445731	1.83359468155665	1.438791189042165	-0.6750730534589033	1.728877348867267	1.460954641137178	-0.6809580512006903	1.734974958493107	1.181050536426903	-0.7912736745302201	1.718381550802594	1.156856174516375	-0.714259640601785	1.776899905582334	1.404389531138012	-0.7096160642285254	1.740352970966798	1.257644435979198	-0.7508306858766827	1.783818221860139	1.31966582984631	-0.7320165384237773	1.766487065818796	1.095608345537985	-0.7649699239069647	1.826390127191474	0.9564203778655731	-0.7982175869859388	1.766088223275624	0.9361512287508484	-0.8010290773893682	1.799082079999896	1.046500940232162	-0.6583265837681844	1.647300904933963	1.073610963677053	-0.5647234929525747	1.616725604619283	0.05849409302982139	-0.6065132459674348	1.863132583926007	0.0488452257371054	-0.5365191213167099	1.81071908622634	0.009716366400523233	-0.6331976140490739	1.776115803169962	0.7945862578704669	-0.6756902029249143	1.854320105327546	0.7212826769506711	-0.6028440623768275	1.790232534654345	0.6344371593842901	-0.6678573650715792	1.762277547543609	0.3463340557390686	-0.6394699437271536	1.779217532006111	0.2583957459831528	-0.5822212623295071	1.744820918844733	0.1893140844456499	-0.6406825308319305	1.794480107139391	0.5227749737866051	-0.6546353929559193	1.787338953811288	0.5244762482160711	-0.5425514376578028	1.705224195097207	0.089287715791528	-0.6396743318555613	1.7045293487115	0.09073232379518076	-0.552989520985389	1.727811580554052	0.9515226889723476	-0.6091084126509276	1.793683232308948	0.5216070741549041	-0.59588403484978	1.729559370305419	1.163162576944525	-0.7477104689800592	1.690010333609456	0.08023831873909376	-0.5909106268255621	1.78817353850263	1.448404586388377	-0.6776256712294034	
164	3.255	1.822599450988783	1.451213118649141	-0.5141370112918313	1.712139371297833	1.527198669734205	-0.5213116963657094	1.782728239743924	1.502711934420656	-0.3931867665499718	1.821561537908926	1.443437895177075	-0.3521458786976205	1.724641592501474	1.464079255376938	-0.3578580452678427	1.688893747525413	1.18378537686713	-0.2707114981346389	1.681552189599505	1.166318786383838	-0.3509168005812385	1.75745382247257	1.408065104345805	-0.3281927388355737	1.705253891530202	1.262276304974766	-0.3039184806980854	1.755184677691148	1.321729213581522	-0.3118002145407504	1.721806933258133	1.09976382201876	-0.2974070950988125	1.771670843925399	0.9559156051110983	-0.2676018084492706	1.712164847465889	0.9374201286150343	-0.2807173044194688	1.810701725231989	1.029171400065467	-0.3881638526233064	1.654832523965899	1.067805120172623	-0.4702993799739392	1.446461262530128	0.2916047140016149	-0.4033216245738576	1.597029298299214	0.09589425016262942	-0.4721355659323201	1.540719567116309	0.1159588836464759	-0.3718779079287314	1.807824314450047	0.7982932808079888	-0.3691773303343308	1.898628907427029	0.7342379925067889	-0.4358656649911968	1.847331789849475	0.6422764495095572	-0.3666719477818473	1.738167697524106	0.4079925850927272	-0.3816809062884704	1.692748675728713	0.3287316765398722	-0.4360163620481495	1.624032994663533	0.2989727316008787	-0.3746511989298585	1.869569663781836	0.5321419324213421	-0.3727687682490204	1.865344768490808	0.5260375743286345	-0.4848472698131734	1.529453530239874	0.2477942634855393	-0.3715398112097022	1.526912152698662	0.2478003517380493	-0.4582021877205485	1.737135885320048	0.9412749382317747	-0.4463451199430275	1.873269670111626	0.52127095274022	-0.4319018969091727	1.688366301991328	1.169406313639813	-0.3158781330500361	1.510338681217497	0.2497713353981377	-0.4197265918672436	1.776159389482805	1.453107340362701	-0.3548217431274411	1.796611994386012	1.499584901288984	-0.6400561359658825	1.839717217056272	1.439348698004889	-0.6749750540876577	1.735043676016224	1.461641367020741	-0.6811441939834977	1.742746231041471	1.181356694081171	-0.7913265502532765	1.725830487821219	1.157171772414419	-0.7143797053260742	1.783381308424103	1.404930411296687	-0.7096591973897819	1.747615101565765	1.258008521296184	-0.7509288364263561	1.790742260206498	1.320212635320914	-0.7319406858372254	1.774648606818647	1.096156086879426	-0.7647449848616975	1.83560488743499	0.9572917447130747	-0.7974267922617809	1.775450351531346	0.9366161530107363	-0.800429160989189	1.804535889353183	1.046823452333762	-0.658423212632728	1.652672676735965	1.073988505028094	-0.5649692579196981	1.616895209055673	0.05888430969601906	-0.6066849487763901	1.863241636096351	0.04878160926108588	-0.5365418742434669	1.810826464621458	0.009813658930828632	-0.6332844293958549	1.780554815906671	0.7945758450179894	-0.6754140623905363	1.857975847860665	0.7205902212170231	-0.6024209166415554	1.79330305606661	0.6343106962450153	-0.6676080605858332	1.763577740798009	0.3463291467403339	-0.6393797340976701	1.780098444875351	0.2583015647703868	-0.582145722641198	1.745509204735758	0.189379123556703	-0.6406812198747561	1.796579403081976	0.5226121092799454	-0.6544172557833782	1.789203401902894	0.5243349235713624	-0.5423488393658455	1.705520572935066	0.08950788038135998	-0.6397671432016772	1.704717114971861	0.09091924866908224	-0.5530827234121943	1.733427667609277	0.9518911229858569	-0.6088827815005682	1.79561069532716	0.5214599832687883	-0.5956789401252309	1.73716420624027	1.163489225252014	-0.74777594607348	1.690207196980962	0.08049779909554189	-0.5910273129932625	1.794315068630151	1.449018143190515	-0.6776509185174783	
165	3.26	1.828276318188343	1.45169736623858	-0.5140712870310274	1.717929121321329	1.527820518600577	-0.5215191795521356	1.788139013468106	1.503201738098461	-0.3932114522461402	1.826787992278286	1.443865602671667	-0.3520863903024297	1.729909251941896	1.464627526327441	-0.3580548584941945	1.692833662495512	1.184599225302263	-0.2710826765469037	1.685487506455746	1.16723425295437	-0.3513096204201268	1.762469488137422	1.408612531937542	-0.3283090979332275	1.709582604956994	1.263042821305844	-0.3042075761010654	1.759791335250967	1.322274032920831	-0.3119922051678846	1.725008101305183	1.100293067217033	-0.2977452100128548	1.773416304994024	0.9559635245709026	-0.2678670718180728	1.71375008092731	0.9380523987043842	-0.2810653965532214	1.816093470109899	1.030463565661431	-0.3881883078228212	1.660175035140597	1.068490488726223	-0.4705133455984657	1.461333643588808	0.2871901785787475	-0.4042297547706339	1.616549560884321	0.09512287633610307	-0.4729818311324634	1.559665741437075	0.1137934109929772	-0.372778959158571	1.81538943459193	0.8001166821696216	-0.3691018340948332	1.9071079425891	0.7374527253973627	-0.4358613417082727	1.857090575153696	0.6446682318146855	-0.3668295311505131	1.75146586703076	0.4086591169726896	-0.3822304788238611	1.707329344883143	0.3287685216900342	-0.4367004808082778	1.639083948539862	0.2978209293798667	-0.3753984801817067	1.880879951742836	0.5348677579944973	-0.3730927269367778	1.87677571275305	0.5288817183836941	-0.4851820930376823	1.545332577358405	0.2451348777981303	-0.3723898603706736	1.542810310306043	0.2452358544897172	-0.4590527365749967	1.742716907528356	0.9422099957462796	-0.4460672170446462	1.884753837266067	0.524157370787964	-0.4322419757922469	1.692282871648332	1.17026098507294	-0.3162620088155005	1.526199112111021	0.2468819716508133	-0.4205781397270787	1.781405146367705	1.453591525808214	-0.354882319226862	1.802690825670423	1.500145836019122	-0.6400432345576723	1.84581728515824	1.439869423029453	-0.6748664133252025	1.741188245594939	1.462292300577689	-0.6813123589723084	1.750522688008097	1.18162016253255	-0.7913384771457209	1.733301014711283	1.157443489584338	-0.7144569305757911	1.789843119572352	1.40543325898931	-0.7096832594114897	1.754876219661872	1.258330186019403	-0.7509924382222972	1.797656442294015	1.32072364330633	-0.7318413934427347	1.7828281843933	1.096669612612754	-0.7644779871130153	1.844846681168414	0.958143534497204	-0.7965919396334959	1.784845221650475	0.9370543120680828	-0.7997750282361105	1.809977603959759	1.047106248052255	-0.6585128377089207	1.658032691941286	1.074320298693117	-0.5652060520755681	1.617058731369168	0.05926463887506821	-0.6068504974618808	1.863344083117015	0.04871539765689896	-0.5365588436125239	1.810930160292414	0.00991470041704488	-0.6333692765158772	1.784986571293433	0.7945331926247221	-0.6751227741519733	1.861609522257481	0.7198701000641712	-0.6019774801186106	1.796359827057563	0.634163235713771	-0.667344909645741	1.764863773913827	0.3463147374022431	-0.6392793278169603	1.780963899939412	0.258200609640867	-0.5820586379495826	1.746189266625924	0.189436429746506	-0.6406703715362668	1.798660144426951	0.5224364433034762	-0.6541866989466436	1.791039674148073	0.5241835604761057	-0.5421350168748255	1.7058128621359	0.08972048838750468	-0.6398528006278252	1.704894513283807	0.09109980132804124	-0.5531690058875197	1.739038742293272	0.9522191317027743	-0.6086440726540002	1.79751413014953	0.5213024265019393	-0.5954621807843865	1.744784004013361	1.163773253238653	-0.7477998058025188	1.690397039065392	0.08075003131096148	-0.5911379630982743	1.800434439247658	1.449595346166	-0.6776623422496346	
